<?xml version="1.0" encoding="UTF-8"?>
<svg version="1.1" xmlns="http://www.w3.org/2000/svg" width="500" height="500">
<path d="M0 0 C165 0 330 0 500 0 C500 165 500 330 500 500 C335 500 170 500 0 500 C0 335 0 170 0 0 Z " fill="#FCFCFC" transform="translate(0,0)"/>
<path d="M0 0 C2.30114843 0.98492734 3.55273129 2.10053825 5.2578125 3.921875 C6.03898437 4.74365234 6.03898437 4.74365234 6.8359375 5.58203125 C7.22265625 6.00355469 7.609375 6.42507812 8.0078125 6.859375 C11.82465476 5.30436519 14.19976982 2.82342005 17.0078125 -0.140625 C20.89200585 1.440129 23.49622196 4.08468908 26.38378906 7.02416992 C27.17005928 7.8124115 27.17005928 7.8124115 27.97221375 8.61657715 C29.70226611 10.35311367 31.42522891 12.09651812 33.1484375 13.83984375 C34.35615693 15.05383921 35.56439671 16.26731721 36.77313232 17.4803009 C39.95704403 20.67751508 43.13535156 23.88023773 46.31207275 27.08459473 C51.38067657 32.19628621 56.45587031 37.30141035 61.53453827 42.40310097 C63.29828713 44.17697719 65.058524 45.95428212 66.81842041 47.73197937 C71.86455466 52.8153288 76.90766079 57.83980386 82.41033936 62.43696594 C84.92604483 64.67697997 86.93839057 67.20792815 89.0078125 69.859375 C89.3378125 68.209375 89.6678125 66.559375 90.0078125 64.859375 C92.6478125 64.859375 95.2878125 64.859375 98.0078125 64.859375 C97.9046875 63.704375 97.8015625 62.549375 97.6953125 61.359375 C97.6953125 56.18239506 99.79458677 52.79732283 103.0078125 48.859375 C114.85274018 38.11630105 119.52796477 43.859375 142.0078125 43.859375 C142.0078125 69.599375 142.0078125 95.339375 142.0078125 121.859375 C137.0578125 121.859375 132.1078125 121.859375 127.0078125 121.859375 C126.6778125 101.069375 126.3478125 80.279375 126.0078125 58.859375 C122.0478125 58.859375 118.0878125 58.859375 114.0078125 58.859375 C114.0078125 60.839375 114.0078125 62.819375 114.0078125 64.859375 C117.3078125 64.859375 120.6078125 64.859375 124.0078125 64.859375 C124.0078125 69.479375 124.0078125 74.099375 124.0078125 78.859375 C120.7078125 78.859375 117.4078125 78.859375 114.0078125 78.859375 C114.0078125 93.049375 114.0078125 107.239375 114.0078125 121.859375 C108.7278125 121.859375 103.4478125 121.859375 98.0078125 121.859375 C98.0078125 107.669375 98.0078125 93.479375 98.0078125 78.859375 C96.6878125 79.189375 95.3678125 79.519375 94.0078125 79.859375 C94.3378125 80.519375 94.6678125 81.179375 95.0078125 81.859375 C96.05960795 97.58457907 93.43533505 106.80325592 83.0078125 118.859375 C78.54570373 123.69302945 73.88487289 128.33703555 69.2421875 132.99609375 C67.91792048 134.32934368 66.5937233 135.66266297 65.26959229 136.99604797 C62.51314803 139.76886726 59.75244434 142.5373673 56.98925781 145.3034668 C53.44428651 148.85386951 49.91583953 152.42024009 46.39092636 155.99054241 C43.67134474 158.7397713 40.94067287 161.4777723 38.2067337 164.21271706 C36.89965092 165.52401174 35.59669857 166.8394369 34.297966 168.1590023 C32.4911103 169.99256833 30.669292 171.80982984 28.84277344 173.6237793 C28.30867859 174.17270844 27.77458374 174.72163757 27.2243042 175.28720093 C25.71282959 176.76908875 25.71282959 176.76908875 23.0078125 178.859375 C19.5869354 178.73115799 18.04484032 177.23983654 15.7578125 174.796875 C14.97664063 173.97509766 14.97664063 173.97509766 14.1796875 173.13671875 C13.79296875 172.71519531 13.40625 172.29367187 13.0078125 171.859375 C9.19097024 173.41438481 6.81585518 175.89532995 4.0078125 178.859375 C0.79256945 177.45092782 -1.31402618 175.75592714 -3.7421875 173.234375 C-4.35578125 172.60273438 -4.969375 171.97109375 -5.6015625 171.3203125 C-6.28992188 170.59714844 -6.28992188 170.59714844 -6.9921875 169.859375 C-6.0841713 168.72738147 -5.16534924 167.60405137 -4.2421875 166.484375 C-3.73171875 165.85789062 -3.22125 165.23140625 -2.6953125 164.5859375 C-0.9921875 162.859375 -0.9921875 162.859375 3.0078125 160.859375 C5.6478125 163.499375 8.2878125 166.139375 11.0078125 168.859375 C14.32507754 167.20074248 15.82884367 166.2737515 18.2578125 163.734375 C19.1653125 162.785625 20.0728125 161.836875 21.0078125 160.859375 C19.55999457 157.41509235 17.73086641 155.49806538 14.8828125 153.109375 C14.15835938 152.49578125 13.43390625 151.8821875 12.6875 151.25 C12.13320312 150.79109375 11.57890625 150.3321875 11.0078125 149.859375 C10.74226563 150.45234375 10.47671875 151.0453125 10.203125 151.65625 C8.37350702 155.02848707 5.77229739 157.21508511 3.0078125 159.859375 C-0.42813916 158.33228537 -3.11131204 156.26010455 -5.9921875 153.859375 C-8.6321875 156.499375 -11.2721875 159.139375 -13.9921875 161.859375 C-21.09040179 155.83258929 -21.09040179 155.83258929 -23.9921875 152.859375 C-22.62848451 149.86717232 -21.04310667 147.56910971 -18.8671875 145.109375 C-18.32835938 144.49578125 -17.78953125 143.8821875 -17.234375 143.25 C-16.82445313 142.79109375 -16.41453125 142.3321875 -15.9921875 141.859375 C-16.5078125 141.446875 -17.0234375 141.034375 -17.5546875 140.609375 C-18.0290625 140.031875 -18.5034375 139.454375 -18.9921875 138.859375 C-18.6003696 135.51815278 -17.38371428 133.89341091 -15.00463867 131.59472656 C-14.06312202 130.67291595 -14.06312202 130.67291595 -13.10258484 129.73248291 C-12.07920769 128.75115387 -12.07920769 128.75115387 -11.03515625 127.75 C-9.59819909 126.3412562 -8.16135369 124.93239839 -6.72460938 123.5234375 C-4.45652968 121.31734594 -2.18519951 119.1147061 0.08911133 116.91503906 C2.28552744 114.78538405 4.46929139 112.64333944 6.65234375 110.5 C7.32852249 109.85387756 8.00470123 109.20775513 8.70137024 108.54205322 C13.81096631 103.51253499 18.11008891 98.15583002 18.4453125 90.734375 C16.8769049 76.84276485 0.38015196 65.10797177 -9.0546875 55.734375 C-10.4110421 54.38304814 -11.7671636 53.03148728 -13.12304688 51.6796875 C-16.41008305 48.40354973 -19.70024446 45.13058189 -22.9921875 41.859375 C-22.49533447 41.24094727 -21.99848145 40.62251953 -21.48657227 39.98535156 C-19.77952449 38.01694662 -19.77952449 38.01694662 -20.08203125 35.84375 C-21.20453863 33.39639485 -22.60168451 31.95585055 -24.5546875 30.109375 C-25.19535156 29.49578125 -25.83601563 28.8821875 -26.49609375 28.25 C-26.98980469 27.79109375 -27.48351563 27.3321875 -27.9921875 26.859375 C-27.05628246 25.7538561 -26.11838892 24.65002047 -25.1796875 23.546875 C-24.39658203 22.62455078 -24.39658203 22.62455078 -23.59765625 21.68359375 C-22.12046281 20.00512821 -20.59179619 18.42055466 -18.9921875 16.859375 C-14.63163651 18.84670576 -11.56635305 21.69761317 -7.9921875 24.859375 C-5.6821875 22.879375 -3.3721875 20.899375 -0.9921875 18.859375 C-0.46109375 19.3646875 0.07 19.87 0.6171875 20.390625 C1.32359375 21.0403125 2.03 21.69 2.7578125 22.359375 C3.45390625 23.0090625 4.15 23.65875 4.8671875 24.328125 C7.11138063 26.24724143 7.11138063 26.24724143 11.0078125 25.859375 C13.00121528 24.34921428 13.00121528 24.34921428 14.7578125 22.359375 C15.37140625 21.7096875 15.985 21.06 16.6171875 20.390625 C17.30554688 19.63265625 17.30554688 19.63265625 18.0078125 18.859375 C17.0997963 17.72738147 16.18097424 16.60405137 15.2578125 15.484375 C14.74734375 14.85789063 14.236875 14.23140625 13.7109375 13.5859375 C11.84590937 11.50950405 11.84590937 11.50950405 8.0078125 9.859375 C5.3678125 12.499375 2.7278125 15.139375 0.0078125 17.859375 C-4.44213801 15.63439975 -6.59303441 13.41303505 -9.9921875 9.859375 C-8.47065736 5.90339663 -4.710752 -0.33252367 0 0 Z " fill="#3371E7" transform="translate(85.9921875,147.140625)"/>
<path d="M0 0 C1.24652344 -0.00257813 2.49304688 -0.00515625 3.77734375 -0.0078125 C7.0625 0.125 7.0625 0.125 10.0625 1.125 C10.0625 5.415 10.0625 9.705 10.0625 14.125 C7.41791621 15.44729189 5.38488699 15.22177194 2.4375 15.1875 C1.43460937 15.17847656 0.43171875 15.16945312 -0.6015625 15.16015625 C-1.37242187 15.14855469 -2.14328125 15.13695312 -2.9375 15.125 C-2.9375 17.105 -2.9375 19.085 -2.9375 21.125 C4.3225 21.125 11.5825 21.125 19.0625 21.125 C22.41697311 30.07026163 22.41697311 30.07026163 23.59765625 33.80859375 C23.84966797 34.59041016 24.10167969 35.37222656 24.36132812 36.17773438 C24.8787498 37.7935192 25.39163515 39.41076246 25.90039062 41.02929688 C26.15111328 41.80208984 26.40183594 42.57488281 26.66015625 43.37109375 C26.88195557 44.06904053 27.10375488 44.7669873 27.33227539 45.48608398 C27.94670551 47.33168294 27.94670551 47.33168294 30.0625 48.125 C30.14886719 47.58875 30.23523438 47.0525 30.32421875 46.5 C31.36106758 40.71647628 32.87622489 35.16358579 34.625 29.5625 C34.95794067 28.49032227 34.95794067 28.49032227 35.29760742 27.39648438 C36.93162095 22.25587905 36.93162095 22.25587905 38.0625 21.125 C40.75904854 21.05180379 43.42941458 21.03257463 46.125 21.0625 C46.88361328 21.06701172 47.64222656 21.07152344 48.42382812 21.07617188 C50.30341871 21.0879932 52.18296899 21.10592922 54.0625 21.125 C52.45286111 28.13147574 50.21643296 34.85912489 47.88671875 41.65625 C47.47968216 42.8467395 47.07264557 44.037229 46.65327454 45.26379395 C45.79361453 47.77240405 44.93228132 50.28037468 44.06860352 52.78759766 C42.97024026 55.97831853 41.88438085 59.17314562 40.80140972 62.36911774 C39.75536844 65.44703828 38.69505236 68.52003873 37.63671875 71.59375 C37.25319748 72.73042114 36.86967621 73.86709229 36.47453308 75.03820801 C33.59621748 83.31896683 30.6464841 91.13553677 23.0625 96.125 C17.89858171 97.8463061 12.46958764 97.17853552 7.0625 97.125 C7.0625 92.505 7.0625 87.885 7.0625 83.125 C10.6925 82.795 14.3225 82.465 18.0625 82.125 C22.03597862 72.77563853 17.96821809 64.38937192 14.625 55.4375 C14.21701172 54.32310547 13.80902344 53.20871094 13.38867188 52.06054688 C11.25502001 46.22148268 11.25502001 46.22148268 8.92944336 40.45776367 C8.0625 38.125 8.0625 38.125 8.0625 35.125 C4.4325 35.125 0.8025 35.125 -2.9375 35.125 C-2.9375 49.315 -2.9375 63.505 -2.9375 78.125 C-8.2175 78.125 -13.4975 78.125 -18.9375 78.125 C-18.9375 63.935 -18.9375 49.745 -18.9375 35.125 C-21.5775 35.125 -24.2175 35.125 -26.9375 35.125 C-26.9375 30.505 -26.9375 25.885 -26.9375 21.125 C-24.2975 21.125 -21.6575 21.125 -18.9375 21.125 C-19.040625 19.97 -19.14375 18.815 -19.25 17.625 C-19.25 12.44802006 -17.15072573 9.06294783 -13.9375 5.125 C-9.08389267 0.72289103 -6.51346599 -0.01344369 0 0 Z " fill="#625657" transform="translate(403.9375,190.875)"/>
<path d="M0 0 C0 25.74 0 51.48 0 78 C-4.95 78 -9.9 78 -15 78 C-15.33 57.21 -15.66 36.42 -16 15 C-19.96 15 -23.92 15 -28 15 C-28 16.98 -28 18.96 -28 21 C-24.7 21 -21.4 21 -18 21 C-18 25.62 -18 30.24 -18 35 C-21.3 35 -24.6 35 -28 35 C-28 49.19 -28 63.38 -28 78 C-33.28 78 -38.56 78 -44 78 C-44 63.81 -44 49.62 -44 35 C-45.65 35 -47.3 35 -49 35 C-52.00559652 29.99067246 -52.29341888 26.67276511 -52 21 C-49.36 21 -46.72 21 -44 21 C-44.103125 19.845 -44.20625 18.69 -44.3125 17.5 C-44.3125 12.32302006 -42.21322573 8.93794783 -39 5 C-27.15507232 -5.74307395 -22.47984773 0 0 0 Z " fill="#625655" transform="translate(228,191)"/>
<path d="M0 0 C5.28 0 10.56 0 16 0 C16.25394531 1.14597656 16.50789063 2.29195312 16.76953125 3.47265625 C17.11683806 5.00268353 17.46451401 6.53262705 17.8125 8.0625 C17.97814453 8.81466797 18.14378906 9.56683594 18.31445312 10.34179688 C19.42439454 15.17946606 20.91211378 19.49519105 23 24 C25.98080406 16.08818498 28.57904627 8.09989305 31 0 C34.96 0 38.92 0 43 0 C51 19.14285714 51 19.14285714 51 27 C51.66 27 52.32 27 53 27 C53.11214844 25.88625 53.22429687 24.7725 53.33984375 23.625 C53.96508944 18.62303449 55.23158076 13.85394077 56.5625 9 C56.91344727 7.69482422 56.91344727 7.69482422 57.27148438 6.36328125 C57.84289476 4.24089983 58.42077518 2.12026209 59 0 C64.28 0 69.56 0 75 0 C71.33179091 13.57237362 67.40627128 27.06714811 63.46191406 40.5612793 C61.95915755 45.7032363 60.46403748 50.84687799 59 56 C54.71 56 50.42 56 46 56 C44.66138017 51.89748878 43.32889604 47.79316023 42 43.6875 C41.42765625 41.93663086 41.42765625 41.93663086 40.84375 40.15039062 C40.30234375 38.47299805 40.30234375 38.47299805 39.75 36.76171875 C39.41484375 35.73006592 39.0796875 34.69841309 38.734375 33.63549805 C38 31 38 31 38 28 C37.34 28 36.68 28 36 28 C35.896875 28.95261719 35.79375 29.90523437 35.6875 30.88671875 C34.99976461 35.69481246 33.50124969 40.2060711 32 44.8125 C31.59007812 46.09930664 31.59007812 46.09930664 31.171875 47.41210938 C29.1595467 53.68090659 29.1595467 53.68090659 28 56 C24.04 56 20.08 56 16 56 C13.18534428 49.96252096 11.42851295 43.79464685 9.6875 37.375 C9.07618183 35.15085988 8.46419043 32.92690471 7.8515625 30.703125 C7.54508789 29.58744141 7.23861328 28.47175781 6.92285156 27.32226562 C6.0391394 24.14090182 5.1316044 20.96772113 4.2109375 17.796875 C3.7938855 16.35948975 3.7938855 16.35948975 3.3684082 14.89306641 C2.84113077 13.08201776 2.31112819 11.27175975 1.77807617 9.46240234 C1.5432251 8.6523877 1.30837402 7.84237305 1.06640625 7.0078125 C0.85959229 6.30285645 0.65277832 5.59790039 0.43969727 4.87158203 C0 3 0 3 0 0 Z " fill="#614CEF" transform="translate(283,212)"/>
<path d="M0 0 C5.56897173 3.9734253 9.4844965 9.31026264 11 16 C12.18445467 26.62121495 12.10849252 37.22316436 5.45703125 46.046875 C0.57735867 51.45136362 -4.14901523 53.63967394 -11.33984375 54.3125 C-19.78274389 54.60083811 -25.63022711 53.99825374 -31.9296875 48.234375 C-38.39637531 41.4188617 -40.57964806 34.41694194 -40.5 25.125 C-40.49355469 24.33633545 -40.48710937 23.5476709 -40.48046875 22.73510742 C-40.20595668 13.96246033 -37.53766231 8.10088241 -31.125 2.0625 C-21.07830912 -5.89973726 -11.16452864 -5.70894203 0 0 Z " fill="#614CEE" transform="translate(273,215)"/>
<path d="M0 0 C5.28 0 10.56 0 16 0 C16.25394531 1.14597656 16.50789063 2.29195312 16.76953125 3.47265625 C17.11683806 5.00268353 17.46451401 6.53262705 17.8125 8.0625 C17.97814453 8.81466797 18.14378906 9.56683594 18.31445312 10.34179688 C19.42439454 15.17946606 20.91211378 19.49519105 23 24 C25.98080406 16.08818498 28.57904627 8.09989305 31 0 C34.96 0 38.92 0 43 0 C51 19.14285714 51 19.14285714 51 27 C51.66 27 52.32 27 53 27 C53.11214844 25.88625 53.22429687 24.7725 53.33984375 23.625 C53.96508944 18.62303449 55.23158076 13.85394077 56.5625 9 C56.91344727 7.69482422 56.91344727 7.69482422 57.27148438 6.36328125 C57.84289476 4.24089983 58.42077518 2.12026209 59 0 C64.28 0 69.56 0 75 0 C71.33179091 13.57237362 67.40627128 27.06714811 63.46191406 40.5612793 C61.95915755 45.7032363 60.46403748 50.84687799 59 56 C54.71 56 50.42 56 46 56 C44.66138017 51.89748878 43.32889604 47.79316023 42 43.6875 C41.42765625 41.93663086 41.42765625 41.93663086 40.84375 40.15039062 C40.30234375 38.47299805 40.30234375 38.47299805 39.75 36.76171875 C39.41484375 35.73006592 39.0796875 34.69841309 38.734375 33.63549805 C38 31 38 31 38 28 C37.34 28 36.68 28 36 28 C35.896875 28.95261719 35.79375 29.90523437 35.6875 30.88671875 C34.99976461 35.69481246 33.50124969 40.2060711 32 44.8125 C31.59007812 46.09930664 31.59007812 46.09930664 31.171875 47.41210938 C29.1595467 53.68090659 29.1595467 53.68090659 28 56 C24.04 56 20.08 56 16 56 C13.18534428 49.96252096 11.42851295 43.79464685 9.6875 37.375 C9.07618183 35.15085988 8.46419043 32.92690471 7.8515625 30.703125 C7.54508789 29.58744141 7.23861328 28.47175781 6.92285156 27.32226562 C6.0391394 24.14090182 5.1316044 20.96772113 4.2109375 17.796875 C3.7938855 16.35948975 3.7938855 16.35948975 3.3684082 14.89306641 C2.84113077 13.08201776 2.31112819 11.27175975 1.77807617 9.46240234 C1.5432251 8.6523877 1.30837402 7.84237305 1.06640625 7.0078125 C0.85959229 6.30285645 0.65277832 5.59790039 0.43969727 4.87158203 C0 3 0 3 0 0 Z M5 4 C5.65852854 9.74856677 7.05000887 15.08276227 8.6875 20.625 C9.22540251 22.47521911 9.76315828 24.32548089 10.30078125 26.17578125 C10.7177124 27.60204834 10.7177124 27.60204834 11.14306641 29.05712891 C12.57361345 33.96989643 13.9728281 38.89157454 15.375 43.8125 C15.88266848 45.58988489 16.39046746 47.36723252 16.8984375 49.14453125 C17.265625 50.4296875 17.6328125 51.71484375 18 53 C20.64 53 23.28 53 26 53 C27.42948271 48.35684247 28.853497 43.71205675 30.27246094 39.06567383 C30.75598467 37.48513533 31.2410018 35.9050529 31.72753906 34.32543945 C32.42645726 32.05538166 33.11999545 29.78374008 33.8125 27.51171875 C34.14060669 26.45219246 34.14060669 26.45219246 34.4753418 25.3712616 C35.35533579 22.46827738 36 20.05258079 36 17 C36.66 17 37.32 17 38 17 C38.23460937 18.19496094 38.46921875 19.38992187 38.7109375 20.62109375 C40.18569977 27.25752396 42.43764079 33.63371458 44.625 40.0625 C45.04523438 41.30966797 45.46546875 42.55683594 45.8984375 43.84179688 C46.92818847 46.89594465 47.96213551 49.94860185 49 53 C51.31 53 53.62 53 56 53 C59.77605346 42.45489219 62.75867575 31.76089628 65.58813477 20.92626953 C66.01437134 19.30374268 66.01437134 19.30374268 66.44921875 17.6484375 C66.70018311 16.68083496 66.95114746 15.71323242 67.2097168 14.71630859 C68 12 68 12 69.09692383 9.33447266 C70.18039443 6.9508529 70.18039443 6.9508529 70 4 C67.03 4 64.06 4 61 4 C60.6443396 5.43835205 60.6443396 5.43835205 60.28149414 6.90576172 C59.40236537 10.45843823 58.52013694 14.01033887 57.63696289 17.56201172 C57.25492925 19.10021263 56.87374004 20.63862352 56.4934082 22.17724609 C55.94703735 24.38694934 55.39764843 26.5958832 54.84765625 28.8046875 C54.6778273 29.49432587 54.50799835 30.18396423 54.33302307 30.89450073 C53.11387171 35.77225659 53.11387171 35.77225659 52 38 C50.72658976 34.20919398 49.45675324 30.41719971 48.1875 26.625 C47.83107422 25.56410156 47.47464844 24.50320312 47.10742188 23.41015625 C44.95483205 16.97213531 42.90238685 10.51647333 41 4 C38.36 4 35.72 4 33 4 C32.08269317 6.8956319 31.16609739 9.79148542 30.25 12.6875 C29.97776611 13.54714355 29.70553223 14.40678711 29.42504883 15.29248047 C27.48738946 21.4227796 25.60062259 27.56584669 23.76171875 33.7265625 C23 36 23 36 22 37 C21.83395264 36.35562988 21.66790527 35.71125977 21.49682617 35.04736328 C20.72906421 32.07271842 19.95829814 29.0988595 19.1875 26.125 C18.92646484 25.11179688 18.66542969 24.09859375 18.39648438 23.0546875 C16.73571429 16.65764718 14.95111179 10.31463456 13 4 C10.36 4 7.72 4 5 4 Z " fill="#605454" transform="translate(283,212)"/>
<path d="M0 0 C2.97 0 5.94 0 9 0 C10.57247211 4.50032696 12.13888352 9.00269981 13.69970703 13.50708008 C14.23157201 15.03923413 14.76509085 16.5708151 15.30029297 18.10180664 C16.06913435 20.30206236 16.83201147 22.50430801 17.59375 24.70703125 C17.83436157 25.39150833 18.07497314 26.07598541 18.32287598 26.78120422 C19.31225239 29.65837218 20 31.93309937 20 35 C20.66 35 21.32 35 22 35 C22.09410156 34.0615625 22.18820312 33.123125 22.28515625 32.15625 C23.01310867 27.06953851 24.75756502 22.33793901 26.4375 17.5 C28.42795449 11.69690176 30.38198393 5.91917436 32 0 C34.97 0 37.94 0 41 0 C39.03461761 7.5824244 36.73495629 14.97809244 34.12890625 22.36328125 C33.76530502 23.39889694 33.4017038 24.43451263 33.02708435 25.50151062 C32.26355359 27.67109565 31.49790802 29.8399375 30.73022461 32.00805664 C29.56053837 35.31805104 28.40409185 38.6324861 27.24804688 41.94726562 C26.50080445 44.06538814 25.75278455 46.18323656 25.00390625 48.30078125 C24.49120934 49.77748039 24.49120934 49.77748039 23.96815491 51.28401184 C21.59550181 57.92750562 19.28543817 64.14763467 13 68 C9.50615721 69.16461426 6.66344611 69.13568319 3 69 C2 68 2 68 1.9375 64.4375 C1.958125 63.303125 1.97875 62.16875 2 61 C2.67546875 60.96003906 3.3509375 60.92007813 4.046875 60.87890625 C9.42844291 60.29989125 9.42844291 60.29989125 13.625 57.1796875 C16.92592449 50.60076161 15.4177137 45.494699 13.27648926 38.70619202 C12.45895542 36.34670344 11.60813699 34.00229869 10.7421875 31.66015625 C10.2803154 30.38790443 10.2803154 30.38790443 9.80911255 29.08995056 C8.83633068 26.41218358 7.85625253 23.73717335 6.875 21.0625 C5.88747157 18.36253479 4.90158612 15.66200446 3.91946411 12.96006775 C3.31073434 11.28612599 2.6987566 9.61336108 2.08322144 7.94190979 C0 2.22398754 0 2.22398754 0 0 Z " fill="#614CEF" transform="translate(412,216)"/>
<path d="M0 0 C4.95 0 9.9 0 15 0 C15 18.81 15 37.62 15 57 C10.05 57 5.1 57 0 57 C0 38.19 0 19.38 0 0 Z " fill="#614CEA" transform="translate(359,212)"/>
<path d="M0 0 C0.98484375 0.01804688 1.9696875 0.03609375 2.984375 0.0546875 C4.10585938 0.08949219 4.10585938 0.08949219 5.25 0.125 C5.25 2.435 5.25 4.745 5.25 7.125 C3.26432292 7.35286458 1.27864583 7.58072917 -0.70703125 7.80859375 C-2.94396393 8.09670735 -2.94396393 8.09670735 -5.75 9.125 C-6.41 13.415 -7.07 17.705 -7.75 22.125 C-4.45 22.125 -1.15 22.125 2.25 22.125 C2.25 24.105 2.25 26.085 2.25 28.125 C-1.05 28.125 -4.35 28.125 -7.75 28.125 C-7.75 42.315 -7.75 56.505 -7.75 71.125 C-10.39 71.125 -13.03 71.125 -15.75 71.125 C-15.75 56.935 -15.75 42.745 -15.75 28.125 C-18.39 28.125 -21.03 28.125 -23.75 28.125 C-23.75 26.145 -23.75 24.165 -23.75 22.125 C-21.11 22.125 -18.47 22.125 -15.75 22.125 C-15.85441406 20.83916016 -15.85441406 20.83916016 -15.9609375 19.52734375 C-16.45839414 9.02153328 -16.45839414 9.02153328 -13 4.9375 C-8.99010829 0.93773428 -5.63570565 -0.13418347 0 0 Z " fill="#614CF2" transform="translate(404.75,193.875)"/>
<path d="M0 0 C0.98484375 0.01804688 1.9696875 0.03609375 2.984375 0.0546875 C4.10585937 0.08949219 4.10585937 0.08949219 5.25 0.125 C5.25 2.435 5.25 4.745 5.25 7.125 C3.26432292 7.35286458 1.27864583 7.58072917 -0.70703125 7.80859375 C-2.94396393 8.09670735 -2.94396393 8.09670735 -5.75 9.125 C-6.41 13.415 -7.07 17.705 -7.75 22.125 C-4.45 22.125 -1.15 22.125 2.25 22.125 C2.25 24.105 2.25 26.085 2.25 28.125 C-1.05 28.125 -4.35 28.125 -7.75 28.125 C-7.75 42.315 -7.75 56.505 -7.75 71.125 C-10.39 71.125 -13.03 71.125 -15.75 71.125 C-15.75 56.935 -15.75 42.745 -15.75 28.125 C-18.39 28.125 -21.03 28.125 -23.75 28.125 C-23.75 26.145 -23.75 24.165 -23.75 22.125 C-21.11 22.125 -18.47 22.125 -15.75 22.125 C-15.85441406 20.83916016 -15.85441406 20.83916016 -15.9609375 19.52734375 C-16.45839414 9.02153328 -16.45839414 9.02153328 -13 4.9375 C-8.99010829 0.93773428 -5.63570565 -0.13418347 0 0 Z " fill="#614CF2" transform="translate(203.75,193.875)"/>
<path d="M0 0 C2.97 0 5.94 0 9 0 C9 23.1 9 46.2 9 70 C6.03 70 3.06 70 0 70 C0 46.9 0 23.8 0 0 Z " fill="#614CEA" transform="translate(216,195)"/>
<path d="M0 0 C5.56897173 3.9734253 9.4844965 9.31026264 11 16 C12.18445467 26.62121495 12.10849252 37.22316436 5.45703125 46.046875 C0.57735867 51.45136362 -4.14901523 53.63967394 -11.33984375 54.3125 C-19.78274389 54.60083811 -25.63022711 53.99825374 -31.9296875 48.234375 C-38.39637531 41.4188617 -40.57964806 34.41694194 -40.5 25.125 C-40.49355469 24.33633545 -40.48710937 23.5476709 -40.48046875 22.73510742 C-40.20595668 13.96246033 -37.53766231 8.10088241 -31.125 2.0625 C-21.07830912 -5.89973726 -11.16452864 -5.70894203 0 0 Z M-31.25 7.1875 C-36.198692 13.41967629 -37.61492195 20.30782917 -37.33984375 28.1640625 C-36.34176497 36.49285783 -33.62497986 42.35265057 -27.09765625 47.66015625 C-21.26129856 51.38803463 -15.7707015 51.75124357 -9 51 C-1.38326382 48.82192647 2.82249922 43.48400125 6.875 37 C9.61965833 29.73569471 9.25042 19.99288748 6.3125 12.875 C2.98928771 6.64982769 -1.79267127 3.10366436 -8 0 C-18.02346222 -0.85514853 -24.16506775 -0.22495953 -31.25 7.1875 Z " fill="#615552" transform="translate(273,215)"/>
<path d="M0 0 C3.22744584 1.35102384 4.72568297 2.6310909 6.8125 5.4375 C8.92496482 11.77489445 9.00160291 18.28136352 6.6875 24.5625 C3.07524752 29.78019802 3.07524752 29.78019802 -0.12109375 30.43359375 C-6.33389403 30.44407065 -6.33389403 30.44407065 -9.4375 28.375 C-13.03447395 22.90759959 -13.72472761 17.39990226 -13 11 C-11.10288306 3.93773987 -7.80181252 -1.11454465 0 0 Z " fill="#F9F9F9" transform="translate(261,225)"/>
<path d="M0 0 C4.95 0 9.9 0 15 0 C15 18.81 15 37.62 15 57 C10.05 57 5.1 57 0 57 C0 38.19 0 19.38 0 0 Z M3 4 C3 20.17 3 36.34 3 53 C5.97 53 8.94 53 12 53 C12 36.83 12 20.66 12 4 C9.03 4 6.06 4 3 4 Z " fill="#5F534C" transform="translate(359,212)"/>
<path d="M0 0 C3.21524305 1.40844718 5.32183868 3.10344786 7.75 5.625 C8.67039062 6.57246094 8.67039062 6.57246094 9.609375 7.5390625 C10.29773438 8.26222656 10.29773438 8.26222656 11 9 C9.59155282 12.21524305 7.89655214 14.32183868 5.375 16.75 C4.74335937 17.36359375 4.11171875 17.9771875 3.4609375 18.609375 C2.97882813 19.06828125 2.49671875 19.5271875 2 20 C-2.29378813 18.07712966 -4.77153701 15.37521131 -8 12 C-10.77612564 13.17451469 -12.8650269 14.66968014 -15.125 16.625 C-18 19 -18 19 -20 19 C-20.33 19.66 -20.66 20.32 -21 21 C-23.62187494 19.95125002 -24.79371361 19.35068687 -26.25 16.875 C-26.4975 16.25625 -26.745 15.6375 -27 15 C-23.98102289 9.92811845 -20.59505607 6.71139144 -16 3 C-14.02 4.98 -12.04 6.96 -10 9 C-6.78956118 7.61811547 -4.95063635 6.07578097 -2.75 3.375 C-2.22921875 2.74335938 -1.7084375 2.11171875 -1.171875 1.4609375 C-0.78515625 0.97882813 -0.3984375 0.49671875 0 0 Z " fill="#F7F8FC" transform="translate(97,297)"/>
<path d="M0 0 C5.02937241 2.42154968 6.93002657 4.89644482 9 10 C9.2844321 12.7662416 9.42156865 15.2472756 9.375 18 C9.38660156 18.68578125 9.39820313 19.3715625 9.41015625 20.078125 C9.37661373 25.93688484 7.80649419 29.91124109 4 34.3125 C0.73110695 37.07062851 -2.64889317 37.46075949 -6.8671875 37.4140625 C-10.81012634 36.64858353 -13.53658521 34.06928167 -16 31 C-19.41076085 24.553662 -19.28778684 14.44808537 -17.27734375 7.50390625 C-13.48468825 0.36388678 -7.52122277 -1.18057994 0 0 Z M-13 8 C-15.52858923 13.29799648 -16.02502997 19.3562291 -14.4296875 25.02734375 C-13.12659125 28.27136758 -11.72337667 30.81236956 -9 33 C-5.91421614 33.74544217 -3.09575042 33.68432378 0 33 C3.16462069 30.63767752 4.75518138 27.73445587 6 24 C6.66055978 16.59306738 6.6742831 10.97269507 2 5 C-0.38217995 3.17366204 -1.95419833 3.00682153 -4.9375 2.5625 C-9.13385549 3.16197936 -10.41840566 4.70129612 -13 8 Z " fill="#5F5352" transform="translate(263,222)"/>
<path d="M0 0 C2.875 2.125 2.875 2.125 5 5 C5.55878277 8.91147941 5.23182354 11.71099688 3 15 C-0.77577103 17.51718068 -2.56615608 17.15171263 -6.90234375 16.53125 C-9 16 -9 16 -11.0625 14.375 C-12.37306279 11.0549076 -12.37904656 8.53776792 -12 5 C-9.24755565 0.01938642 -5.45238818 -0.65428658 0 0 Z " fill="#625655" transform="translate(470,252)"/>
<path d="M0 0 C3.57997706 2.62531651 4.83870692 4.09675873 5.625 8.5 C4.82883761 12.95850936 3.69186542 14.40783917 0 17 C-3.5 17.625 -3.5 17.625 -7 17 C-10.38677089 14.54999553 -11.78698584 13.13607554 -12.5625 9 C-11.87206143 5.31766096 -10.63186072 3.63186072 -8 1 C-4.90786415 -0.03071195 -3.21050376 -0.45864339 0 0 Z " fill="#675B59" transform="translate(370,194)"/>
<path d="M0 0 C2.30114843 0.98492734 3.55273129 2.10053825 5.2578125 3.921875 C5.77859375 4.46972656 6.299375 5.01757812 6.8359375 5.58203125 C7.22265625 6.00355469 7.609375 6.42507812 8.0078125 6.859375 C11.82465476 5.30436519 14.19976982 2.82342005 17.0078125 -0.140625 C17.6678125 0.189375 18.3278125 0.519375 19.0078125 0.859375 C10.0078125 9.859375 10.0078125 9.859375 8.2578125 10.609375 C4.91009038 12.46922062 2.65085236 15.09619696 0.0078125 17.859375 C-4.28457373 16.20845722 -6.871579 13.12182934 -9.9921875 9.859375 C-8.47065736 5.90339663 -4.710752 -0.33252367 0 0 Z " fill="#5360EF" transform="translate(85.9921875,147.140625)"/>
<path d="M0 0 C3.23861303 1.44424635 5.61969163 3.25772247 8.25 5.625 C8.95640625 6.25664062 9.6628125 6.88828125 10.390625 7.5390625 C10.92171875 8.02117187 11.4528125 8.50328125 12 9 C9 12 6 15 3 18 C-0.21524305 16.59155282 -2.32183868 14.89655214 -4.75 12.375 C-5.36359375 11.74335938 -5.9771875 11.11171875 -6.609375 10.4609375 C-7.06828125 9.97882813 -7.5271875 9.49671875 -8 9 C-7.04270084 7.87411986 -6.08412105 6.7493285 -5.125 5.625 C-4.59132813 4.99851562 -4.05765625 4.37203125 -3.5078125 3.7265625 C-2.38567993 2.44163349 -1.20628025 1.20628025 0 0 Z " fill="#4C5FEE" transform="translate(87,308)"/>
<path d="M0 0 C1.12588014 0.95729916 2.2506715 1.91587895 3.375 2.875 C4.00148438 3.40867187 4.62796875 3.94234375 5.2734375 4.4921875 C6.55836651 5.61432007 7.79371975 6.79371975 9 8 C7.75803878 9.15454162 6.50607155 10.29832562 5.25 11.4375 C4.55390625 12.07558594 3.8578125 12.71367187 3.140625 13.37109375 C0.98364819 15.01244289 -0.41267462 15.4206641 -3 16 C-3.33 16.66 -3.66 17.32 -4 18 C-6.62187494 16.95125002 -7.79371361 16.35068687 -9.25 13.875 C-9.4975 13.25625 -9.745 12.6375 -10 12 C-7.11954533 7.34695784 -3.96084779 3.78080926 0 0 Z " fill="#F1F1FC" transform="translate(80,300)"/>
<path d="M0 0 C1.36125 0.928125 1.36125 0.928125 2.75 1.875 C5.73740382 3.92671628 5.73740382 3.92671628 8.0625 5 C10.65761316 6.33941324 12.763022 8.13585167 15 10 C13.73762269 12.52475462 12.2095347 13.46605403 9.9375 15.125 C9.20402344 15.66382813 8.47054687 16.20265625 7.71484375 16.7578125 C7.14894531 17.16773438 6.58304688 17.57765625 6 18 C4.50868963 16.61714856 3.03234815 15.21814261 1.5625 13.8125 C0.73878906 13.03519531 -0.08492188 12.25789062 -0.93359375 11.45703125 C-3.14094697 8.83240899 -3.86380259 7.40493519 -4 4 C-2.0625 1.6875 -2.0625 1.6875 0 0 Z " fill="#F2F2FC" transform="translate(71,155)"/>
<path d="M0 0 C2.64 1.98 5.28 3.96 8 6 C6.21844267 9.56311466 4.83236991 11.35645475 2 14 C-1.36591866 12.55746343 -3.51047079 10.66735273 -6 8 C-4.55746343 4.63408134 -2.66735273 2.48952921 0 0 Z " fill="#545FF0" transform="translate(82,332)"/>
<path d="M0 0 C3.56311466 1.78155733 5.35645475 3.16763009 8 6 C6.50902342 9.7952131 4.24299151 11.61042731 1 14 C-1.31 11.69 -3.62 9.38 -6 7 C-4.02 4.69 -2.04 2.38 0 0 Z " fill="#595BF1" transform="translate(78,127)"/>
<path d="M0 0 C3.7952131 1.49097658 5.61042731 3.75700849 8 7 C6.02 8.98 4.04 10.96 2 13 C-1.7952131 11.50902342 -3.61042731 9.24299151 -6 6 C-4.02 4.02 -2.04 2.04 0 0 Z " fill="#5759F1" transform="translate(76,322)"/>
<path d="M0 0 C3.7952131 1.49097658 5.61042731 3.75700849 8 7 C6.02 8.98 4.04 10.96 2 13 C-1.7952131 11.50902342 -3.61042731 9.24299151 -6 6 C-4.02 4.02 -2.04 2.04 0 0 Z " fill="#5F5AF2" transform="translate(73,138)"/>
<path d="M0 0 C2 2 2 2 2.8125 4.5 C3.79728463 7.23553696 3.79728463 7.23553696 6.625 8.3125 C7.40875 8.539375 8.1925 8.76625 9 9 C8.236875 9.53625 7.47375 10.0725 6.6875 10.625 C3.77135526 13.20205814 2.5294378 15.45814404 1 19 C0.71125 18.401875 0.4225 17.80375 0.125 17.1875 C-2.02624872 12.98171368 -2.02624872 12.98171368 -6.125 10.8125 C-7.07375 10.544375 -8.0225 10.27625 -9 10 C-8.4225 9.7525 -7.845 9.505 -7.25 9.25 C-3.90673592 7.39263106 -1.48080747 5.44242241 -0.25 1.75 C-0.1675 1.1725 -0.085 0.595 0 0 Z " fill="#F6F2E5" transform="translate(301,312)"/>
<path d="M0 0 C3.4375 0.1875 3.4375 0.1875 4.4375 1.1875 C4.5625 4.6875 4.5625 4.6875 4.4375 8.1875 C3.4375 9.1875 3.4375 9.1875 0 9.375 C-3.5625 9.1875 -3.5625 9.1875 -5.5625 7.1875 C-5.8125 4.6875 -5.8125 4.6875 -5.5625 2.1875 C-3.5625 0.1875 -3.5625 0.1875 0 0 Z " fill="#614CEE" transform="translate(466.5625,255.8125)"/>
<path d="M0 0 C0.99 0.103125 1.98 0.20625 3 0.3125 C5 3.3125 5 3.3125 4.6875 5.9375 C4 8.3125 4 8.3125 3 9.3125 C0.66702567 9.35342937 -1.66705225 9.35491723 -4 9.3125 C-4.625 5.9375 -4.625 5.9375 -5 2.3125 C-3 0.3125 -3 0.3125 0 0 Z " fill="#614CEB" transform="translate(367,197.6875)"/>
<path d="M0 0 C1.98 1.65 3.96 3.3 6 5 C4.60667426 8.36720387 3.0210714 9.9859524 0 12 C-1.65 10.35 -3.3 8.7 -5 7 C-3.70700306 4.11562221 -2.34058637 2.12780579 0 0 Z " fill="#725EE4" transform="translate(56,156)"/>
<path d="M0 0 C1.98 1.65 3.96 3.3 6 5 C4.84826645 7.46800047 3.95216435 9.04783565 2 11 C-1.29279709 10.68134222 -2.86535088 9.45484649 -5 7 C-3.70700306 4.11562221 -2.34058637 2.12780579 0 0 Z " fill="#6A57F1" transform="translate(59,305)"/>
<path d="M0 0 C3.16115776 1.36983503 3.9927092 1.9890638 6 5 C4.68 6.65 3.36 8.3 2 10 C-0.62187494 8.95125002 -1.79371361 8.35068687 -3.25 5.875 C-3.4975 5.25625 -3.745 4.6375 -4 4 C-2.68 2.68 -1.36 1.36 0 0 Z " fill="#5E5DF2" transform="translate(74,308)"/>
<path d="M0 0 C2.62187494 1.04874998 3.79371361 1.64931313 5.25 4.125 C5.4975 4.74375 5.745 5.3625 6 6 C4.35 7.32 2.7 8.64 1 10 C-0.65 8.02 -2.3 6.04 -4 4 C-2.68 2.68 -1.36 1.36 0 0 Z " fill="#7663DF" transform="translate(53,176)"/>
<path d="M0 0 C1.98 1.65 3.96 3.3 6 5 C4.68 6.65 3.36 8.3 2 10 C-0.62187494 8.95125002 -1.79371361 8.35068687 -3.25 5.875 C-3.4975 5.25625 -3.745 4.6375 -4 4 C-2.68 2.68 -1.36 1.36 0 0 Z " fill="#635BF3" transform="translate(71,155)"/>
<path d="M0 0 C1.65 1.32 3.3 2.64 5 4 C3.63016497 7.16115776 3.0109362 7.9927092 0 10 C-1.32 8.68 -2.64 7.36 -4 6 C-2.84826645 3.53199953 -1.95216435 1.95216435 0 0 Z " fill="#6F5BE8" transform="translate(55,321)"/>
<path d="M0 0 C1.65 1.32 3.3 2.64 5 4 C3.63016497 7.16115776 3.0109362 7.9927092 0 10 C-1.32 8.68 -2.64 7.36 -4 6 C-2.84826645 3.53199953 -1.95216435 1.95216435 0 0 Z " fill="#6752EC" transform="translate(57,287)"/>
<path d="M0 0 C1.65 1.32 3.3 2.64 5 4 C3.63016497 7.16115776 3.0109362 7.9927092 0 10 C-1.32 8.68 -2.64 7.36 -4 6 C-2.84826645 3.53199953 -1.95216435 1.95216435 0 0 Z " fill="#7966D8" transform="translate(52,142)"/>
<path d="M0 0 C2 1 4 2 6 3 C4.63016497 6.16115776 4.0109362 6.9927092 1 9 C-0.32 7.68 -1.64 6.36 -3 5 C-1.125 1.125 -1.125 1.125 0 0 Z " fill="#6A5CF4" transform="translate(63,334)"/>
<path d="M0 0 C2.51570636 0.97382182 3.73944098 1.46151135 4.9375 3.9375 C5 6 5 6 3.5625 7.75 C2.7890625 8.36875 2.7890625 8.36875 2 9 C0.68 8.34 -0.64 7.68 -2 7 C-2 3 -2 3 0 0 Z " fill="#6F5BF1" transform="translate(60,130)"/>
<path d="M0 0 C1.65 1.65 3.3 3.3 5 5 C3.35 6.32 1.7 7.64 0 9 C-1.32 7.35 -2.64 5.7 -4 4 C-2.68 2.68 -1.36 1.36 0 0 Z " fill="#7F6DD2" transform="translate(47,332)"/>
<path d="M0 0 C1.65 1.65 3.3 3.3 5 5 C3.35 6.32 1.7 7.64 0 9 C-1.32 7.35 -2.64 5.7 -4 4 C-2.68 2.68 -1.36 1.36 0 0 Z " fill="#4A62ED" transform="translate(92,326)"/>
<path d="M0 0 C1.65 1.65 3.3 3.3 5 5 C3.35 6.32 1.7 7.64 0 9 C-1.32 7.35 -2.64 5.7 -4 4 C-2.68 2.68 -1.36 1.36 0 0 Z " fill="#4E5FEF" transform="translate(89,138)"/>
<path d="M0 0 C1.65 1.65 3.3 3.3 5 5 C3.35 6.32 1.7 7.64 0 9 C-1.32 7.35 -2.64 5.7 -4 4 C-2.68 2.68 -1.36 1.36 0 0 Z " fill="#8C7BC2" transform="translate(44,132)"/>
<path d="M0 0 C1.32 0.66 2.64 1.32 4 2 C4 3.32 4 4.64 4 6 C2.02 6.99 2.02 6.99 0 8 C-0.99 7.01 -1.98 6.02 -3 5 C-1.125 1.125 -1.125 1.125 0 0 Z " fill="#7461F3" transform="translate(61,147)"/>
<path d="M0 0 C1.32 0.66 2.64 1.32 4 2 C4 3.32 4 4.64 4 6 C2.02 6.99 2.02 6.99 0 8 C-0.99 6.35 -1.98 4.7 -3 3 C-2.01 2.01 -1.02 1.02 0 0 Z " fill="#6B5DF4" transform="translate(64,318)"/>
<path d="M0 0 C2.125 0.375 2.125 0.375 4 1 C4 2.32 4 3.64 4 5 C2.68 5 1.36 5 0 5 C-0.66 4.01 -1.32 3.02 -2 2 C-1.34 1.34 -0.68 0.68 0 0 Z " fill="#8A79CE" transform="translate(46,168)"/>
<path d="M0 0 C1.32 1.32 2.64 2.64 4 4 C2.68 4.99 1.36 5.98 0 7 C-0.99 5.68 -1.98 4.36 -3 3 C-2.01 2.01 -1.02 1.02 0 0 Z " fill="#8A7AC4" transform="translate(42,322)"/>
<path d="M0 0 C1.32 1.32 2.64 2.64 4 4 C2.68 4.99 1.36 5.98 0 7 C-0.99 5.68 -1.98 4.36 -3 3 C-2.01 2.01 -1.02 1.02 0 0 Z " fill="#9283B3" transform="translate(39,144)"/>
<path d="M0 0 C1.32 0.66 2.64 1.32 4 2 C3.34 3.32 2.68 4.64 2 6 C0.68 5.34 -0.64 4.68 -2 4 C-1.34 2.68 -0.68 1.36 0 0 Z " fill="#A699A6" transform="translate(29,326)"/>
<path d="M0 0 C1.32 0.66 2.64 1.32 4 2 C3.34 3.32 2.68 4.64 2 6 C0.68 5.34 -0.64 4.68 -2 4 C-1.34 2.68 -0.68 1.36 0 0 Z " fill="#8B7BD6" transform="translate(47,313)"/>
<path d="M0 0 C1.32 0.66 2.64 1.32 4 2 C3.34 3.32 2.68 4.64 2 6 C0.68 5.34 -0.64 4.68 -2 4 C-1.34 2.68 -0.68 1.36 0 0 Z " fill="#7966DA" transform="translate(50,299)"/>
<path d="M0 0 C1.32 0.66 2.64 1.32 4 2 C3.34 3.32 2.68 4.64 2 6 C0.68 5.34 -0.64 4.68 -2 4 C-1.34 2.68 -0.68 1.36 0 0 Z " fill="#AEA395" transform="translate(26,141)"/>
<path d="M0 0 C0.66 0 1.32 0 2 0 C2 0.66 2 1.32 2 2 C2.66 2 3.32 2 4 2 C3.34 3.32 2.68 4.64 2 6 C0.68 5.34 -0.64 4.68 -2 4 C-1.34 2.68 -0.68 1.36 0 0 Z " fill="#A093C6" transform="translate(39,306)"/>
<path d="M0 0 C0.66 0.33 1.32 0.66 2 1 C-0.64 3.97 -3.28 6.94 -6 10 C-6.99 9.34 -7.98 8.68 -9 8 C-8.43410156 7.50628906 -7.86820312 7.01257813 -7.28515625 6.50390625 C-6.55167969 5.86324219 -5.81820312 5.22257812 -5.0625 4.5625 C-4.33160156 3.92441406 -3.60070312 3.28632813 -2.84765625 2.62890625 C-1.87860647 1.77458541 -0.91348825 0.91348825 0 0 Z " fill="#E4E7FA" transform="translate(97,318)"/>
<path d="M0 0 C1.32 0.66 2.64 1.32 4 2 C4 2.66 4 3.32 4 4 C2.02 4.99 2.02 4.99 0 6 C-0.66 4.68 -1.32 3.36 -2 2 C-1.34 1.34 -0.68 0.68 0 0 Z " fill="#9182C7" transform="translate(44,154)"/>
<path d="M0 0 C0.99 0.66 1.98 1.32 3 2 C2.67 2.99 2.34 3.98 2 5 C0.68 4.67 -0.64 4.34 -2 4 C-1.34 2.68 -0.68 1.36 0 0 Z " fill="#9A8BAD" transform="translate(36,161)"/>
</svg>
